<mxfile host="app.diagrams.net" modified="2023-05-12T12:53:15.988Z" agent="Mozilla/5.0 (Macintosh; Intel Mac OS X 10_15_7) AppleWebKit/537.36 (KHTML, like Gecko) Chrome/113.0.0.0 Safari/537.36" etag="Iqxcd8Z7ryedA-ujoGwa" version="21.2.9" type="github">
  <diagram id="C5RBs43oDa-KdzZeNtuy" name="Page-1">
    <mxGraphModel dx="2156" dy="1664" grid="1" gridSize="10" guides="1" tooltips="1" connect="1" arrows="1" fold="1" page="1" pageScale="1" pageWidth="2339" pageHeight="3300" math="0" shadow="0">
      <root>
        <mxCell id="WIyWlLk6GJQsqaUBKTNV-0" />
        <mxCell id="WIyWlLk6GJQsqaUBKTNV-1" parent="WIyWlLk6GJQsqaUBKTNV-0" />
        <mxCell id="0zeD9HRaySoYJETbk6xT-5" value="AquariumScreen" style="swimlane;fontStyle=1;align=center;verticalAlign=top;childLayout=stackLayout;horizontal=1;startSize=26;horizontalStack=0;resizeParent=1;resizeParentMax=0;resizeLast=0;collapsible=1;marginBottom=0;whiteSpace=wrap;html=1;" vertex="1" parent="WIyWlLk6GJQsqaUBKTNV-1">
          <mxGeometry x="1005" y="30" width="350" height="110" as="geometry" />
        </mxCell>
        <mxCell id="0zeD9HRaySoYJETbk6xT-6" value="&lt;font color=&quot;#ff0000&quot;&gt;private AquariumManager _manager&lt;/font&gt;" style="text;strokeColor=none;fillColor=none;align=left;verticalAlign=top;spacingLeft=4;spacingRight=4;overflow=hidden;rotatable=0;points=[[0,0.5],[1,0.5]];portConstraint=eastwest;whiteSpace=wrap;html=1;" vertex="1" parent="0zeD9HRaySoYJETbk6xT-5">
          <mxGeometry y="26" width="350" height="24" as="geometry" />
        </mxCell>
        <mxCell id="0zeD9HRaySoYJETbk6xT-7" value="" style="line;strokeWidth=1;fillColor=none;align=left;verticalAlign=middle;spacingTop=-1;spacingLeft=3;spacingRight=3;rotatable=0;labelPosition=right;points=[];portConstraint=eastwest;strokeColor=inherit;" vertex="1" parent="0zeD9HRaySoYJETbk6xT-5">
          <mxGeometry y="50" width="350" height="8" as="geometry" />
        </mxCell>
        <mxCell id="0zeD9HRaySoYJETbk6xT-8" value="public async UniTask Initialize(),OnOpen(),OnClose()&lt;br&gt;public void OnReDetectPlaneButtonClicked()&amp;nbsp;&lt;br&gt;private async UniTask ReDetectPlane()" style="text;strokeColor=none;fillColor=none;align=left;verticalAlign=top;spacingLeft=4;spacingRight=4;overflow=hidden;rotatable=0;points=[[0,0.5],[1,0.5]];portConstraint=eastwest;whiteSpace=wrap;html=1;" vertex="1" parent="0zeD9HRaySoYJETbk6xT-5">
          <mxGeometry y="58" width="350" height="52" as="geometry" />
        </mxCell>
        <mxCell id="0zeD9HRaySoYJETbk6xT-9" value="" style="endArrow=block;endFill=1;html=1;edgeStyle=orthogonalEdgeStyle;align=left;verticalAlign=top;rounded=0;exitX=0.489;exitY=1.005;exitDx=0;exitDy=0;exitPerimeter=0;" edge="1" parent="WIyWlLk6GJQsqaUBKTNV-1" source="0zeD9HRaySoYJETbk6xT-8">
          <mxGeometry x="0.7368" y="-50" relative="1" as="geometry">
            <mxPoint x="1166" y="170" as="sourcePoint" />
            <mxPoint x="1176" y="260" as="targetPoint" />
            <Array as="points" />
            <mxPoint as="offset" />
          </mxGeometry>
        </mxCell>
        <mxCell id="0zeD9HRaySoYJETbk6xT-11" value="AquariumManager" style="swimlane;fontStyle=1;align=center;verticalAlign=top;childLayout=stackLayout;horizontal=1;startSize=26;horizontalStack=0;resizeParent=1;resizeParentMax=0;resizeLast=0;collapsible=1;marginBottom=0;whiteSpace=wrap;html=1;" vertex="1" parent="WIyWlLk6GJQsqaUBKTNV-1">
          <mxGeometry x="1000" y="260" width="360" height="210" as="geometry" />
        </mxCell>
        <mxCell id="0zeD9HRaySoYJETbk6xT-12" value="&lt;font color=&quot;#ff0000&quot;&gt;private MainInfoCanvasController _mainInfoCanvasController&lt;br&gt;private AquariumObjectPresenter _aquariumPrefab&lt;br&gt;private FishInfoPanelManager _fishInfoPanelManager&lt;/font&gt;&lt;br&gt;private AquariumData _aquariumData&lt;br&gt;private AquariumObjectPresenter _aquariumObjectPresenter" style="text;strokeColor=none;fillColor=none;align=left;verticalAlign=top;spacingLeft=4;spacingRight=4;overflow=hidden;rotatable=0;points=[[0,0.5],[1,0.5]];portConstraint=eastwest;whiteSpace=wrap;html=1;" vertex="1" parent="0zeD9HRaySoYJETbk6xT-11">
          <mxGeometry y="26" width="360" height="84" as="geometry" />
        </mxCell>
        <mxCell id="0zeD9HRaySoYJETbk6xT-13" value="" style="line;strokeWidth=1;fillColor=none;align=left;verticalAlign=middle;spacingTop=-1;spacingLeft=3;spacingRight=3;rotatable=0;labelPosition=right;points=[];portConstraint=eastwest;strokeColor=inherit;" vertex="1" parent="0zeD9HRaySoYJETbk6xT-11">
          <mxGeometry y="110" width="360" height="8" as="geometry" />
        </mxCell>
        <mxCell id="0zeD9HRaySoYJETbk6xT-14" value="public void Initialize()&lt;br&gt;public async UniTask CreateAquarium(PlaneTransformInfo)&lt;br&gt;public void DeleteAquariumObject()&lt;br&gt;public void FishInfoButtonClicked()&lt;br&gt;private async UniTask UpdateAquariumState()&lt;br&gt;public void SetShowAquariumInfo(bool)" style="text;strokeColor=none;fillColor=none;align=left;verticalAlign=top;spacingLeft=4;spacingRight=4;overflow=hidden;rotatable=0;points=[[0,0.5],[1,0.5]];portConstraint=eastwest;whiteSpace=wrap;html=1;" vertex="1" parent="0zeD9HRaySoYJETbk6xT-11">
          <mxGeometry y="118" width="360" height="92" as="geometry" />
        </mxCell>
        <mxCell id="0zeD9HRaySoYJETbk6xT-25" value="" style="endArrow=block;endFill=1;html=1;edgeStyle=orthogonalEdgeStyle;align=left;verticalAlign=top;rounded=0;entryX=0.471;entryY=-0.015;entryDx=0;entryDy=0;entryPerimeter=0;" edge="1" parent="0zeD9HRaySoYJETbk6xT-11" target="0zeD9HRaySoYJETbk6xT-21">
          <mxGeometry x="-1" relative="1" as="geometry">
            <mxPoint x="180" y="210" as="sourcePoint" />
            <mxPoint x="180" y="350" as="targetPoint" />
            <mxPoint as="offset" />
          </mxGeometry>
        </mxCell>
        <mxCell id="0zeD9HRaySoYJETbk6xT-15" value="MainCanvasController" style="swimlane;fontStyle=1;align=center;verticalAlign=top;childLayout=stackLayout;horizontal=1;startSize=26;horizontalStack=0;resizeParent=1;resizeParentMax=0;resizeLast=0;collapsible=1;marginBottom=0;whiteSpace=wrap;html=1;" vertex="1" parent="WIyWlLk6GJQsqaUBKTNV-1">
          <mxGeometry x="640" y="620" width="230" height="180" as="geometry" />
        </mxCell>
        <mxCell id="0zeD9HRaySoYJETbk6xT-16" value="&lt;font color=&quot;#ff0000&quot;&gt;private GameObject _aquariumInfoObjs&lt;br&gt;private TMP_Text _capacityText&lt;br&gt;private TMP_Text _moneyText&lt;/font&gt;&lt;br&gt;private int _maxCapacity&lt;br&gt;private int _nowCapacity" style="text;strokeColor=none;fillColor=none;align=left;verticalAlign=top;spacingLeft=4;spacingRight=4;overflow=hidden;rotatable=0;points=[[0,0.5],[1,0.5]];portConstraint=eastwest;whiteSpace=wrap;html=1;" vertex="1" parent="0zeD9HRaySoYJETbk6xT-15">
          <mxGeometry y="26" width="230" height="74" as="geometry" />
        </mxCell>
        <mxCell id="0zeD9HRaySoYJETbk6xT-17" value="" style="line;strokeWidth=1;fillColor=none;align=left;verticalAlign=middle;spacingTop=-1;spacingLeft=3;spacingRight=3;rotatable=0;labelPosition=right;points=[];portConstraint=eastwest;strokeColor=inherit;" vertex="1" parent="0zeD9HRaySoYJETbk6xT-15">
          <mxGeometry y="100" width="230" height="8" as="geometry" />
        </mxCell>
        <mxCell id="0zeD9HRaySoYJETbk6xT-18" value="public void OnChangedMaxCapacity(int)&lt;br&gt;public void OnChangedCapacity(int)&lt;br&gt;public void OnChangedMoney(int)&lt;br&gt;public void SetIsShowInfo()" style="text;strokeColor=none;fillColor=none;align=left;verticalAlign=top;spacingLeft=4;spacingRight=4;overflow=hidden;rotatable=0;points=[[0,0.5],[1,0.5]];portConstraint=eastwest;whiteSpace=wrap;html=1;" vertex="1" parent="0zeD9HRaySoYJETbk6xT-15">
          <mxGeometry y="108" width="230" height="72" as="geometry" />
        </mxCell>
        <mxCell id="0zeD9HRaySoYJETbk6xT-19" value="" style="endArrow=block;endFill=1;html=1;edgeStyle=orthogonalEdgeStyle;align=left;verticalAlign=top;rounded=0;entryX=0.457;entryY=0.002;entryDx=0;entryDy=0;entryPerimeter=0;" edge="1" parent="WIyWlLk6GJQsqaUBKTNV-1" target="0zeD9HRaySoYJETbk6xT-15">
          <mxGeometry x="-1" relative="1" as="geometry">
            <mxPoint x="1060" y="470" as="sourcePoint" />
            <mxPoint x="1220" y="470" as="targetPoint" />
            <Array as="points">
              <mxPoint x="1060" y="490" />
              <mxPoint x="745" y="490" />
            </Array>
          </mxGeometry>
        </mxCell>
        <mxCell id="0zeD9HRaySoYJETbk6xT-21" value="AquariumObjectPresenter" style="swimlane;fontStyle=1;align=center;verticalAlign=top;childLayout=stackLayout;horizontal=1;startSize=26;horizontalStack=0;resizeParent=1;resizeParentMax=0;resizeLast=0;collapsible=1;marginBottom=0;whiteSpace=wrap;html=1;" vertex="1" parent="WIyWlLk6GJQsqaUBKTNV-1">
          <mxGeometry x="1010" y="620" width="360" height="170" as="geometry" />
        </mxCell>
        <mxCell id="0zeD9HRaySoYJETbk6xT-22" value="private AquariumObjectView _view&lt;br&gt;private AquariumObjectModel _model&lt;br&gt;public Func&amp;lt;CancellationToken,UniTask&amp;gt; UpdateStateListener" style="text;strokeColor=none;fillColor=none;align=left;verticalAlign=top;spacingLeft=4;spacingRight=4;overflow=hidden;rotatable=0;points=[[0,0.5],[1,0.5]];portConstraint=eastwest;whiteSpace=wrap;html=1;" vertex="1" parent="0zeD9HRaySoYJETbk6xT-21">
          <mxGeometry y="26" width="360" height="54" as="geometry" />
        </mxCell>
        <mxCell id="0zeD9HRaySoYJETbk6xT-23" value="" style="line;strokeWidth=1;fillColor=none;align=left;verticalAlign=middle;spacingTop=-1;spacingLeft=3;spacingRight=3;rotatable=0;labelPosition=right;points=[];portConstraint=eastwest;strokeColor=inherit;" vertex="1" parent="0zeD9HRaySoYJETbk6xT-21">
          <mxGeometry y="80" width="360" height="28" as="geometry" />
        </mxCell>
        <mxCell id="0zeD9HRaySoYJETbk6xT-24" value="public void Initialize()&lt;br&gt;private void Bind()" style="text;strokeColor=none;fillColor=none;align=left;verticalAlign=top;spacingLeft=4;spacingRight=4;overflow=hidden;rotatable=0;points=[[0,0.5],[1,0.5]];portConstraint=eastwest;whiteSpace=wrap;html=1;" vertex="1" parent="0zeD9HRaySoYJETbk6xT-21">
          <mxGeometry y="108" width="360" height="62" as="geometry" />
        </mxCell>
        <mxCell id="0zeD9HRaySoYJETbk6xT-36" value="" style="endArrow=block;endFill=1;html=1;edgeStyle=orthogonalEdgeStyle;align=left;verticalAlign=top;rounded=0;entryX=0.559;entryY=-0.011;entryDx=0;entryDy=0;entryPerimeter=0;" edge="1" parent="0zeD9HRaySoYJETbk6xT-21" target="0zeD9HRaySoYJETbk6xT-27">
          <mxGeometry x="-1" relative="1" as="geometry">
            <mxPoint x="40" y="170" as="sourcePoint" />
            <mxPoint x="200" y="160" as="targetPoint" />
          </mxGeometry>
        </mxCell>
        <mxCell id="0zeD9HRaySoYJETbk6xT-43" value="" style="endArrow=block;endFill=1;html=1;edgeStyle=orthogonalEdgeStyle;align=left;verticalAlign=top;rounded=0;entryX=0.387;entryY=0.012;entryDx=0;entryDy=0;entryPerimeter=0;" edge="1" parent="0zeD9HRaySoYJETbk6xT-21" target="0zeD9HRaySoYJETbk6xT-38">
          <mxGeometry x="-1" relative="1" as="geometry">
            <mxPoint x="209" y="170" as="sourcePoint" />
            <mxPoint x="210" y="260" as="targetPoint" />
          </mxGeometry>
        </mxCell>
        <mxCell id="0zeD9HRaySoYJETbk6xT-27" value="AquariumObjectModel" style="swimlane;fontStyle=1;align=center;verticalAlign=top;childLayout=stackLayout;horizontal=1;startSize=26;horizontalStack=0;resizeParent=1;resizeParentMax=0;resizeLast=0;collapsible=1;marginBottom=0;whiteSpace=wrap;html=1;" vertex="1" parent="WIyWlLk6GJQsqaUBKTNV-1">
          <mxGeometry x="620" y="890" width="430" height="150" as="geometry" />
        </mxCell>
        <mxCell id="0zeD9HRaySoYJETbk6xT-28" value="private AquariumData _data&lt;br&gt;private SortedSet&amp;lt;int&amp;gt; _nowStateSet&lt;br&gt;public Func&amp;lt;UserFishData,CancellationToken,UniTask&amp;gt; AddFishActionListener&lt;br&gt;public Action&amp;lt;int&amp;gt; RemoveFishActionListener" style="text;strokeColor=none;fillColor=none;align=left;verticalAlign=top;spacingLeft=4;spacingRight=4;overflow=hidden;rotatable=0;points=[[0,0.5],[1,0.5]];portConstraint=eastwest;whiteSpace=wrap;html=1;" vertex="1" parent="0zeD9HRaySoYJETbk6xT-27">
          <mxGeometry y="26" width="430" height="74" as="geometry" />
        </mxCell>
        <mxCell id="0zeD9HRaySoYJETbk6xT-29" value="" style="line;strokeWidth=1;fillColor=none;align=left;verticalAlign=middle;spacingTop=-1;spacingLeft=3;spacingRight=3;rotatable=0;labelPosition=right;points=[];portConstraint=eastwest;strokeColor=inherit;" vertex="1" parent="0zeD9HRaySoYJETbk6xT-27">
          <mxGeometry y="100" width="430" height="8" as="geometry" />
        </mxCell>
        <mxCell id="0zeD9HRaySoYJETbk6xT-30" value="public AquariumObjectMode(AquariumData)&lt;br&gt;public async UniTask UpdateState(CancellationToken)" style="text;strokeColor=none;fillColor=none;align=left;verticalAlign=top;spacingLeft=4;spacingRight=4;overflow=hidden;rotatable=0;points=[[0,0.5],[1,0.5]];portConstraint=eastwest;whiteSpace=wrap;html=1;" vertex="1" parent="0zeD9HRaySoYJETbk6xT-27">
          <mxGeometry y="108" width="430" height="42" as="geometry" />
        </mxCell>
        <mxCell id="0zeD9HRaySoYJETbk6xT-38" value="AquariumObjectView" style="swimlane;fontStyle=1;align=center;verticalAlign=top;childLayout=stackLayout;horizontal=1;startSize=26;horizontalStack=0;resizeParent=1;resizeParentMax=0;resizeLast=0;collapsible=1;marginBottom=0;whiteSpace=wrap;html=1;" vertex="1" parent="WIyWlLk6GJQsqaUBKTNV-1">
          <mxGeometry x="1080" y="890" width="360" height="130" as="geometry" />
        </mxCell>
        <mxCell id="0zeD9HRaySoYJETbk6xT-39" value="&lt;font color=&quot;#ff0000&quot;&gt;private SwimmingFishPresenter _fishPrefab&lt;br&gt;private Transform _fishParent&lt;/font&gt;&lt;br&gt;private List&amp;lt;SwimmingFishPresenter&amp;gt; _fishList" style="text;strokeColor=none;fillColor=none;align=left;verticalAlign=top;spacingLeft=4;spacingRight=4;overflow=hidden;rotatable=0;points=[[0,0.5],[1,0.5]];portConstraint=eastwest;whiteSpace=wrap;html=1;" vertex="1" parent="0zeD9HRaySoYJETbk6xT-38">
          <mxGeometry y="26" width="360" height="54" as="geometry" />
        </mxCell>
        <mxCell id="0zeD9HRaySoYJETbk6xT-40" value="" style="line;strokeWidth=1;fillColor=none;align=left;verticalAlign=middle;spacingTop=-1;spacingLeft=3;spacingRight=3;rotatable=0;labelPosition=right;points=[];portConstraint=eastwest;strokeColor=inherit;" vertex="1" parent="0zeD9HRaySoYJETbk6xT-38">
          <mxGeometry y="80" width="360" height="8" as="geometry" />
        </mxCell>
        <mxCell id="0zeD9HRaySoYJETbk6xT-41" value="public async UniTask AddFish(UserFishData,CancellationToken)&lt;br&gt;public void RemoveAllFish(int)" style="text;strokeColor=none;fillColor=none;align=left;verticalAlign=top;spacingLeft=4;spacingRight=4;overflow=hidden;rotatable=0;points=[[0,0.5],[1,0.5]];portConstraint=eastwest;whiteSpace=wrap;html=1;" vertex="1" parent="0zeD9HRaySoYJETbk6xT-38">
          <mxGeometry y="88" width="360" height="42" as="geometry" />
        </mxCell>
        <mxCell id="0zeD9HRaySoYJETbk6xT-45" value="SwimmingFishPresenter" style="swimlane;fontStyle=1;align=center;verticalAlign=top;childLayout=stackLayout;horizontal=1;startSize=26;horizontalStack=0;resizeParent=1;resizeParentMax=0;resizeLast=0;collapsible=1;marginBottom=0;whiteSpace=wrap;html=1;" vertex="1" parent="WIyWlLk6GJQsqaUBKTNV-1">
          <mxGeometry x="1095" y="1080" width="260" height="140" as="geometry" />
        </mxCell>
        <mxCell id="0zeD9HRaySoYJETbk6xT-46" value="&lt;font color=&quot;#ff0000&quot;&gt;private SwimmingFishModel _model&lt;br&gt;private SwimmingFishView _view&lt;br&gt;private ModelGenerator _modelGenerator&lt;br&gt;&lt;/font&gt;private UserFishData _data" style="text;strokeColor=none;fillColor=none;align=left;verticalAlign=top;spacingLeft=4;spacingRight=4;overflow=hidden;rotatable=0;points=[[0,0.5],[1,0.5]];portConstraint=eastwest;whiteSpace=wrap;html=1;" vertex="1" parent="0zeD9HRaySoYJETbk6xT-45">
          <mxGeometry y="26" width="260" height="64" as="geometry" />
        </mxCell>
        <mxCell id="0zeD9HRaySoYJETbk6xT-47" value="" style="line;strokeWidth=1;fillColor=none;align=left;verticalAlign=middle;spacingTop=-1;spacingLeft=3;spacingRight=3;rotatable=0;labelPosition=right;points=[];portConstraint=eastwest;strokeColor=inherit;" vertex="1" parent="0zeD9HRaySoYJETbk6xT-45">
          <mxGeometry y="90" width="260" height="8" as="geometry" />
        </mxCell>
        <mxCell id="0zeD9HRaySoYJETbk6xT-48" value="public async UniTask Initialize(UserFishData,CancellationToken)" style="text;strokeColor=none;fillColor=none;align=left;verticalAlign=top;spacingLeft=4;spacingRight=4;overflow=hidden;rotatable=0;points=[[0,0.5],[1,0.5]];portConstraint=eastwest;whiteSpace=wrap;html=1;" vertex="1" parent="0zeD9HRaySoYJETbk6xT-45">
          <mxGeometry y="98" width="260" height="42" as="geometry" />
        </mxCell>
        <mxCell id="0zeD9HRaySoYJETbk6xT-49" value="" style="endArrow=block;endFill=1;html=1;edgeStyle=orthogonalEdgeStyle;align=left;verticalAlign=top;rounded=0;entryX=0.559;entryY=0.013;entryDx=0;entryDy=0;entryPerimeter=0;" edge="1" parent="WIyWlLk6GJQsqaUBKTNV-1" target="0zeD9HRaySoYJETbk6xT-45">
          <mxGeometry x="-1" relative="1" as="geometry">
            <mxPoint x="1240" y="1020" as="sourcePoint" />
            <mxPoint x="1400" y="1020" as="targetPoint" />
            <Array as="points">
              <mxPoint x="1241" y="1020" />
              <mxPoint x="1241" y="1050" />
              <mxPoint x="1240" y="1050" />
            </Array>
            <mxPoint as="offset" />
          </mxGeometry>
        </mxCell>
        <mxCell id="0zeD9HRaySoYJETbk6xT-51" value="SwimmingFishView" style="swimlane;fontStyle=1;align=center;verticalAlign=top;childLayout=stackLayout;horizontal=1;startSize=26;horizontalStack=0;resizeParent=1;resizeParentMax=0;resizeLast=0;collapsible=1;marginBottom=0;whiteSpace=wrap;html=1;" vertex="1" parent="WIyWlLk6GJQsqaUBKTNV-1">
          <mxGeometry x="1250" y="1280" width="200" height="100" as="geometry" />
        </mxCell>
        <mxCell id="0zeD9HRaySoYJETbk6xT-53" value="" style="line;strokeWidth=1;fillColor=none;align=left;verticalAlign=middle;spacingTop=-1;spacingLeft=3;spacingRight=3;rotatable=0;labelPosition=right;points=[];portConstraint=eastwest;strokeColor=inherit;" vertex="1" parent="0zeD9HRaySoYJETbk6xT-51">
          <mxGeometry y="26" width="200" height="8" as="geometry" />
        </mxCell>
        <mxCell id="0zeD9HRaySoYJETbk6xT-54" value="public void OnPosChanged(Vector3)&lt;br&gt;public void OnAngleChanged(float)" style="text;strokeColor=none;fillColor=none;align=left;verticalAlign=top;spacingLeft=4;spacingRight=4;overflow=hidden;rotatable=0;points=[[0,0.5],[1,0.5]];portConstraint=eastwest;whiteSpace=wrap;html=1;" vertex="1" parent="0zeD9HRaySoYJETbk6xT-51">
          <mxGeometry y="34" width="200" height="66" as="geometry" />
        </mxCell>
        <mxCell id="0zeD9HRaySoYJETbk6xT-55" value="SwimmingFishModel" style="swimlane;fontStyle=1;align=center;verticalAlign=top;childLayout=stackLayout;horizontal=1;startSize=26;horizontalStack=0;resizeParent=1;resizeParentMax=0;resizeLast=0;collapsible=1;marginBottom=0;whiteSpace=wrap;html=1;" vertex="1" parent="WIyWlLk6GJQsqaUBKTNV-1">
          <mxGeometry x="990" y="1268" width="240" height="120" as="geometry" />
        </mxCell>
        <mxCell id="0zeD9HRaySoYJETbk6xT-56" value="private ReactiveProperty&amp;lt;Vector3&amp;gt; _pos&lt;br&gt;private ReactiveProperty&amp;lt;float&amp;gt; _angle" style="text;strokeColor=none;fillColor=none;align=left;verticalAlign=top;spacingLeft=4;spacingRight=4;overflow=hidden;rotatable=0;points=[[0,0.5],[1,0.5]];portConstraint=eastwest;whiteSpace=wrap;html=1;" vertex="1" parent="0zeD9HRaySoYJETbk6xT-55">
          <mxGeometry y="26" width="240" height="44" as="geometry" />
        </mxCell>
        <mxCell id="0zeD9HRaySoYJETbk6xT-57" value="" style="line;strokeWidth=1;fillColor=none;align=left;verticalAlign=middle;spacingTop=-1;spacingLeft=3;spacingRight=3;rotatable=0;labelPosition=right;points=[];portConstraint=eastwest;strokeColor=inherit;" vertex="1" parent="0zeD9HRaySoYJETbk6xT-55">
          <mxGeometry y="70" width="240" height="8" as="geometry" />
        </mxCell>
        <mxCell id="0zeD9HRaySoYJETbk6xT-58" value="public void Initialize(Vector3,float)&lt;br&gt;private void Update()" style="text;strokeColor=none;fillColor=none;align=left;verticalAlign=top;spacingLeft=4;spacingRight=4;overflow=hidden;rotatable=0;points=[[0,0.5],[1,0.5]];portConstraint=eastwest;whiteSpace=wrap;html=1;" vertex="1" parent="0zeD9HRaySoYJETbk6xT-55">
          <mxGeometry y="78" width="240" height="42" as="geometry" />
        </mxCell>
        <mxCell id="0zeD9HRaySoYJETbk6xT-61" value="" style="endArrow=block;endFill=1;html=1;edgeStyle=orthogonalEdgeStyle;align=left;verticalAlign=top;rounded=0;entryX=0.542;entryY=0.006;entryDx=0;entryDy=0;entryPerimeter=0;" edge="1" parent="WIyWlLk6GJQsqaUBKTNV-1" target="0zeD9HRaySoYJETbk6xT-55">
          <mxGeometry x="-1" relative="1" as="geometry">
            <mxPoint x="1120" y="1220" as="sourcePoint" />
            <mxPoint x="1280" y="1220" as="targetPoint" />
          </mxGeometry>
        </mxCell>
        <mxCell id="0zeD9HRaySoYJETbk6xT-63" value="" style="endArrow=block;endFill=1;html=1;edgeStyle=orthogonalEdgeStyle;align=left;verticalAlign=top;rounded=0;entryX=0.149;entryY=0.005;entryDx=0;entryDy=0;entryPerimeter=0;" edge="1" parent="WIyWlLk6GJQsqaUBKTNV-1" target="0zeD9HRaySoYJETbk6xT-51">
          <mxGeometry x="-1" relative="1" as="geometry">
            <mxPoint x="1280" y="1220" as="sourcePoint" />
            <mxPoint x="1440" y="1220" as="targetPoint" />
            <mxPoint as="offset" />
          </mxGeometry>
        </mxCell>
        <mxCell id="0zeD9HRaySoYJETbk6xT-65" value="ModelGerator" style="swimlane;fontStyle=1;align=center;verticalAlign=top;childLayout=stackLayout;horizontal=1;startSize=26;horizontalStack=0;resizeParent=1;resizeParentMax=0;resizeLast=0;collapsible=1;marginBottom=0;whiteSpace=wrap;html=1;" vertex="1" parent="WIyWlLk6GJQsqaUBKTNV-1">
          <mxGeometry x="770" y="1120" width="260" height="100" as="geometry" />
        </mxCell>
        <mxCell id="0zeD9HRaySoYJETbk6xT-66" value="private GameObject _mode" style="text;strokeColor=none;fillColor=none;align=left;verticalAlign=top;spacingLeft=4;spacingRight=4;overflow=hidden;rotatable=0;points=[[0,0.5],[1,0.5]];portConstraint=eastwest;whiteSpace=wrap;html=1;" vertex="1" parent="0zeD9HRaySoYJETbk6xT-65">
          <mxGeometry y="26" width="260" height="26" as="geometry" />
        </mxCell>
        <mxCell id="0zeD9HRaySoYJETbk6xT-67" value="" style="line;strokeWidth=1;fillColor=none;align=left;verticalAlign=middle;spacingTop=-1;spacingLeft=3;spacingRight=3;rotatable=0;labelPosition=right;points=[];portConstraint=eastwest;strokeColor=inherit;" vertex="1" parent="0zeD9HRaySoYJETbk6xT-65">
          <mxGeometry y="52" width="260" height="8" as="geometry" />
        </mxCell>
        <mxCell id="0zeD9HRaySoYJETbk6xT-68" value="public async UniTask Generate(MasterFishInfo,CancellationToken)" style="text;strokeColor=none;fillColor=none;align=left;verticalAlign=top;spacingLeft=4;spacingRight=4;overflow=hidden;rotatable=0;points=[[0,0.5],[1,0.5]];portConstraint=eastwest;whiteSpace=wrap;html=1;" vertex="1" parent="0zeD9HRaySoYJETbk6xT-65">
          <mxGeometry y="60" width="260" height="40" as="geometry" />
        </mxCell>
        <mxCell id="0zeD9HRaySoYJETbk6xT-69" value="" style="endArrow=block;endFill=1;html=1;edgeStyle=orthogonalEdgeStyle;align=left;verticalAlign=top;rounded=0;entryX=1.007;entryY=0.581;entryDx=0;entryDy=0;entryPerimeter=0;exitX=0.002;exitY=0.848;exitDx=0;exitDy=0;exitPerimeter=0;" edge="1" parent="WIyWlLk6GJQsqaUBKTNV-1" source="0zeD9HRaySoYJETbk6xT-46" target="0zeD9HRaySoYJETbk6xT-66">
          <mxGeometry x="-1" relative="1" as="geometry">
            <mxPoint x="1090" y="1160" as="sourcePoint" />
            <mxPoint x="1250" y="1160" as="targetPoint" />
          </mxGeometry>
        </mxCell>
        <mxCell id="0zeD9HRaySoYJETbk6xT-76" value="&amp;nbsp;FishInfoPanelManager" style="swimlane;fontStyle=0;childLayout=stackLayout;horizontal=1;startSize=26;fillColor=none;horizontalStack=0;resizeParent=1;resizeParentMax=0;resizeLast=0;collapsible=1;marginBottom=0;whiteSpace=wrap;html=1;" vertex="1" parent="WIyWlLk6GJQsqaUBKTNV-1">
          <mxGeometry x="1500" y="620" width="140" height="60" as="geometry" />
        </mxCell>
        <mxCell id="0zeD9HRaySoYJETbk6xT-77" value="&lt;font style=&quot;font-size: 20px;&quot;&gt;省略&lt;/font&gt;" style="text;strokeColor=none;fillColor=none;align=center;verticalAlign=top;spacingLeft=4;spacingRight=4;overflow=hidden;rotatable=0;points=[[0,0.5],[1,0.5]];portConstraint=eastwest;whiteSpace=wrap;html=1;" vertex="1" parent="0zeD9HRaySoYJETbk6xT-76">
          <mxGeometry y="26" width="140" height="34" as="geometry" />
        </mxCell>
        <mxCell id="0zeD9HRaySoYJETbk6xT-80" value="" style="endArrow=block;endFill=1;html=1;edgeStyle=orthogonalEdgeStyle;align=left;verticalAlign=top;rounded=0;entryX=0.5;entryY=0;entryDx=0;entryDy=0;exitX=0.805;exitY=1.039;exitDx=0;exitDy=0;exitPerimeter=0;" edge="1" parent="WIyWlLk6GJQsqaUBKTNV-1" source="0zeD9HRaySoYJETbk6xT-14" target="0zeD9HRaySoYJETbk6xT-76">
          <mxGeometry x="-1" relative="1" as="geometry">
            <mxPoint x="1290" y="500" as="sourcePoint" />
            <mxPoint x="1450" y="470" as="targetPoint" />
            <Array as="points">
              <mxPoint x="1290" y="490" />
              <mxPoint x="1570" y="490" />
            </Array>
          </mxGeometry>
        </mxCell>
        <mxCell id="0zeD9HRaySoYJETbk6xT-82" value="InGameScreen" style="swimlane;fontStyle=1;align=center;verticalAlign=top;childLayout=stackLayout;horizontal=1;startSize=26;horizontalStack=0;resizeParent=1;resizeParentMax=0;resizeLast=0;collapsible=1;marginBottom=0;whiteSpace=wrap;html=1;" vertex="1" parent="WIyWlLk6GJQsqaUBKTNV-1">
          <mxGeometry x="950" y="1610" width="340" height="160" as="geometry" />
        </mxCell>
        <mxCell id="0zeD9HRaySoYJETbk6xT-83" value="&lt;font color=&quot;#ff0000&quot;&gt;private FishingManager _fishingManager&lt;/font&gt;&lt;br&gt;&lt;font color=&quot;#ff0000&quot;&gt;private FishPond _closedFishPondPrefab&lt;/font&gt;&lt;br&gt;&lt;font color=&quot;#ff0000&quot;&gt;private GameObject _openedFishPondPrefab&lt;/font&gt;&lt;br&gt;" style="text;strokeColor=none;fillColor=none;align=left;verticalAlign=top;spacingLeft=4;spacingRight=4;overflow=hidden;rotatable=0;points=[[0,0.5],[1,0.5]];portConstraint=eastwest;whiteSpace=wrap;html=1;" vertex="1" parent="0zeD9HRaySoYJETbk6xT-82">
          <mxGeometry y="26" width="340" height="54" as="geometry" />
        </mxCell>
        <mxCell id="0zeD9HRaySoYJETbk6xT-84" value="" style="line;strokeWidth=1;fillColor=none;align=left;verticalAlign=middle;spacingTop=-1;spacingLeft=3;spacingRight=3;rotatable=0;labelPosition=right;points=[];portConstraint=eastwest;strokeColor=inherit;" vertex="1" parent="0zeD9HRaySoYJETbk6xT-82">
          <mxGeometry y="80" width="340" height="8" as="geometry" />
        </mxCell>
        <mxCell id="0zeD9HRaySoYJETbk6xT-85" value="public override async UniTask Initialize(),OnOpen(),OnClose()&lt;br&gt;public void OnReDetectPlaneButtonClicked()&lt;br&gt;private async UniTask ReDectPlane()&lt;br&gt;private async UniTask ShowRiver()" style="text;strokeColor=none;fillColor=none;align=left;verticalAlign=top;spacingLeft=4;spacingRight=4;overflow=hidden;rotatable=0;points=[[0,0.5],[1,0.5]];portConstraint=eastwest;whiteSpace=wrap;html=1;" vertex="1" parent="0zeD9HRaySoYJETbk6xT-82">
          <mxGeometry y="88" width="340" height="72" as="geometry" />
        </mxCell>
        <mxCell id="0zeD9HRaySoYJETbk6xT-96" value="" style="endArrow=block;endFill=1;html=1;edgeStyle=orthogonalEdgeStyle;align=left;verticalAlign=top;rounded=0;" edge="1" parent="0zeD9HRaySoYJETbk6xT-82" target="0zeD9HRaySoYJETbk6xT-92">
          <mxGeometry x="-1" relative="1" as="geometry">
            <mxPoint x="110" y="160" as="sourcePoint" />
            <mxPoint x="270" y="150" as="targetPoint" />
          </mxGeometry>
        </mxCell>
        <mxCell id="0zeD9HRaySoYJETbk6xT-86" value="FishPond" style="swimlane;fontStyle=1;align=center;verticalAlign=top;childLayout=stackLayout;horizontal=1;startSize=26;horizontalStack=0;resizeParent=1;resizeParentMax=0;resizeLast=0;collapsible=1;marginBottom=0;whiteSpace=wrap;html=1;" vertex="1" parent="WIyWlLk6GJQsqaUBKTNV-1">
          <mxGeometry x="700" y="1710" width="180" height="60" as="geometry" />
        </mxCell>
        <mxCell id="0zeD9HRaySoYJETbk6xT-88" value="" style="line;strokeWidth=1;fillColor=none;align=left;verticalAlign=middle;spacingTop=-1;spacingLeft=3;spacingRight=3;rotatable=0;labelPosition=right;points=[];portConstraint=eastwest;strokeColor=inherit;" vertex="1" parent="0zeD9HRaySoYJETbk6xT-86">
          <mxGeometry y="26" width="180" height="8" as="geometry" />
        </mxCell>
        <mxCell id="0zeD9HRaySoYJETbk6xT-89" value="public async UniTask Open()" style="text;strokeColor=none;fillColor=none;align=left;verticalAlign=top;spacingLeft=4;spacingRight=4;overflow=hidden;rotatable=0;points=[[0,0.5],[1,0.5]];portConstraint=eastwest;whiteSpace=wrap;html=1;" vertex="1" parent="0zeD9HRaySoYJETbk6xT-86">
          <mxGeometry y="34" width="180" height="26" as="geometry" />
        </mxCell>
        <mxCell id="0zeD9HRaySoYJETbk6xT-90" value="" style="endArrow=block;endFill=1;html=1;edgeStyle=orthogonalEdgeStyle;align=left;verticalAlign=top;rounded=0;entryX=0.994;entryY=0.258;entryDx=0;entryDy=0;entryPerimeter=0;exitX=-0.003;exitY=0.741;exitDx=0;exitDy=0;exitPerimeter=0;" edge="1" parent="WIyWlLk6GJQsqaUBKTNV-1" source="0zeD9HRaySoYJETbk6xT-85" target="0zeD9HRaySoYJETbk6xT-89">
          <mxGeometry x="-0.759" relative="1" as="geometry">
            <mxPoint x="940" y="1740" as="sourcePoint" />
            <mxPoint x="1110" y="1740" as="targetPoint" />
            <mxPoint as="offset" />
          </mxGeometry>
        </mxCell>
        <mxCell id="0zeD9HRaySoYJETbk6xT-92" value="FishingManager" style="swimlane;fontStyle=1;align=center;verticalAlign=top;childLayout=stackLayout;horizontal=1;startSize=26;horizontalStack=0;resizeParent=1;resizeParentMax=0;resizeLast=0;collapsible=1;marginBottom=0;whiteSpace=wrap;html=1;" vertex="1" parent="WIyWlLk6GJQsqaUBKTNV-1">
          <mxGeometry x="980" y="1870" width="160" height="86" as="geometry" />
        </mxCell>
        <mxCell id="0zeD9HRaySoYJETbk6xT-93" value="+ field: type" style="text;strokeColor=none;fillColor=none;align=left;verticalAlign=top;spacingLeft=4;spacingRight=4;overflow=hidden;rotatable=0;points=[[0,0.5],[1,0.5]];portConstraint=eastwest;whiteSpace=wrap;html=1;" vertex="1" parent="0zeD9HRaySoYJETbk6xT-92">
          <mxGeometry y="26" width="160" height="26" as="geometry" />
        </mxCell>
        <mxCell id="0zeD9HRaySoYJETbk6xT-94" value="" style="line;strokeWidth=1;fillColor=none;align=left;verticalAlign=middle;spacingTop=-1;spacingLeft=3;spacingRight=3;rotatable=0;labelPosition=right;points=[];portConstraint=eastwest;strokeColor=inherit;" vertex="1" parent="0zeD9HRaySoYJETbk6xT-92">
          <mxGeometry y="52" width="160" height="8" as="geometry" />
        </mxCell>
        <mxCell id="0zeD9HRaySoYJETbk6xT-95" value="+ method(type): type" style="text;strokeColor=none;fillColor=none;align=left;verticalAlign=top;spacingLeft=4;spacingRight=4;overflow=hidden;rotatable=0;points=[[0,0.5],[1,0.5]];portConstraint=eastwest;whiteSpace=wrap;html=1;" vertex="1" parent="0zeD9HRaySoYJETbk6xT-92">
          <mxGeometry y="60" width="160" height="26" as="geometry" />
        </mxCell>
      </root>
    </mxGraphModel>
  </diagram>
</mxfile>
